<svg xmlns="http://www.w3.org/2000/svg" width="302.45" height="340" viewBox="0 0 302.45 340"><defs><style>.a{fill:#cecece;}</style></defs><title>ShareLock-Holmes-trasnparent-512</title><path class="a" d="M121.75,229.42c1.11.41,2.22.8,3.33,1.2a83,83,0,0,1,39.45-34,80.5,80.5,0,0,1,18.73-5.15,82.8,82.8,0,0,1,51.92,9.3,81.23,81.23,0,0,1,20.73,16.36c1.52,1.66,3,3.4,4.38,5.2A81.81,81.81,0,0,1,275.39,254c36.56-1.95,74.31-9.48,114.82-22.95,17.52-5.82,17.64-24.47,13.56-40.05S393.54,171.15,377.94,177q-13.6,5.09-26.54,9.12a47.73,47.73,0,0,0,1-10c0-47.61-43.21-100.9-96.52-100.9s-96.52,53.29-96.52,100.9a49.11,49.11,0,0,0,.68,8.4q-12.66-4.26-25.91-9.59c-15.53-6.23-21.64-.54-26.08,14.63s-3.4,33.69,13.71,39.91Z" transform="translate(-103.52 -75.17)"/><path class="a" d="M322.5,350.8a51.56,51.56,0,0,0-25.36-21A76.17,76.17,0,0,0,258,325.6a82.82,82.82,0,0,1-12.3,11.71,81,81,0,0,1-50.05,17.18,83,83,0,0,1-10.44-.66l-.8-.1c-12.39,18.47-39.25,47.56-80.9,36.78,0,0,27.77,45.33,87.36,13.08a55.81,55.81,0,0,1,34.26-6.23A63.73,63.73,0,0,0,254.41,395a63.77,63.77,0,0,0,29.28,2.34,55.76,55.76,0,0,1,34.25,6.23c59.59,32.25,87.37-13.08,87.37-13.08-43.94,11.38-71.41-21.61-82.81-39.71Z" transform="translate(-103.52 -75.17)"/><path class="a" d="M253.75,268.83h-4.07s0-.06,0-.1V258.55a53.71,53.71,0,0,0-15.25-37.74,51.1,51.1,0,0,0-36.83-15.64h-4.27a51.06,51.06,0,0,0-36.82,15.64,53.68,53.68,0,0,0-15.26,37.74v10.18s0,.07,0,.1H137.2a8.55,8.55,0,0,0-8.42,8.64v-4.1a67.38,67.38,0,0,0,19.14,47.37,64.15,64.15,0,0,0,46.22,19.62h2.68A64.14,64.14,0,0,0,243,320.74a67.39,67.39,0,0,0,19.15-47.37v4.1A8.55,8.55,0,0,0,253.75,268.83Zm-65.63,31.8a11.06,11.06,0,0,1,0-15.68,10.39,10.39,0,0,1,7.35-3h.43a10.94,10.94,0,0,1,6.93,18.71,3.1,3.1,0,0,0-.83,3l5,19.47a1.24,1.24,0,0,1-.21,1.07,1.16,1.16,0,0,1-.95.48H185.09a1.17,1.17,0,0,1-1-.48,1.24,1.24,0,0,1-.21-1.07l5-19.47A3.13,3.13,0,0,0,188.12,300.63Zm-25.84-31.9v-7.92c0-17.9,14.21-32.46,31.67-32.46H197c17.47,0,31.67,14.56,31.67,32.46v7.92s0,.07,0,.1H162.27S162.28,268.77,162.28,268.73Z" transform="translate(-103.52 -75.17)"/></svg>